<?xml version="1.0" encoding="utf-8"?>
<!-- Generator: Adobe Illustrator 25.4.2, SVG Export Plug-In . SVG Version: 6.00 Build 0)  -->
<svg version="1.1" id="Layer_1" xmlns="http://www.w3.org/2000/svg" xmlns:xlink="http://www.w3.org/1999/xlink" x="0px" y="0px"
	 viewBox="0 0 512 512" style="enable-background:new 0 0 512 512;" xml:space="preserve">
<path style="fill:none;stroke:#E67E22;stroke-width:32;stroke-linecap:round;stroke-linejoin:round;" d="M452.37,59.63L452.37,59.63
	c-15.81-15.81-41.45-15.81-57.26,0L184,294.74c23.08,4.7,46.12,27.29,49.26,49.26l219.11-227.11
	C468.18,101.08,468.18,75.44,452.37,59.63z"/>
<path style="fill:none;stroke:#E67E22;stroke-width:32;stroke-linecap:round;stroke-linejoin:round;" d="M138,336
	c-29.88,0-54,24.5-54,54.86c0,23.95-20.88,36.57-36,36.57C64.56,449.74,92.82,464,120,464c39.78,0,72-32.73,72-73.14
	C192,360.5,167.88,336,138,336z"/>
</svg>
