<?xml version="1.0" encoding="utf-8"?>
<!-- Generator: Adobe Illustrator 25.4.2, SVG Export Plug-In . SVG Version: 6.00 Build 0)  -->
<svg version="1.1" id="Layer_1" xmlns="http://www.w3.org/2000/svg" xmlns:xlink="http://www.w3.org/1999/xlink" x="0px" y="0px"
	 viewBox="0 0 512 512" style="enable-background:new 0 0 512 512;" xml:space="preserve">
<path style="fill:none;stroke:#E67E22;stroke-width:32;stroke-linecap:round;stroke-miterlimit:10;" d="M436.67,184.11
	c-10.6,10.53-27.7,10.53-38.3,0l-22.48-22.49c-10.53-10.59-10.53-27.7,0-38.29l50.89-50.89c0.33-0.33,0.33-0.87,0-1.2
	c-0.07-0.08-0.16-0.14-0.26-0.18C393.68,57,351.09,64.15,324.05,91c-25.88,25.69-27.35,64.27-17.87,98
	c2.75,9.77-0.22,20.25-7.67,27.14l-173,160.76c-16.77,15.02-18.19,40.79-3.17,57.56c15.02,16.77,40.79,18.19,57.56,3.17
	c1.12-1,2.19-2.07,3.19-3.19l162.15-173.3c6.81-7.33,17.11-10.29,26.77-7.7c33.46,8.94,71.49,7.26,97.07-17.94
	c27.49-27.08,33.42-74.94,20.1-102.33c-0.21-0.42-0.72-0.59-1.14-0.38c-0.08,0.04-0.15,0.09-0.22,0.16L436.67,184.11z"/>
<path style="fill:none;stroke:#E67E22;stroke-width:32;stroke-linecap:round;stroke-linejoin:round;" d="M224,284
	c-17.48-17-25.49-24.91-31-30.29c-5.66-5.62-7.01-14.27-3.33-21.35c0.94-1.7,2.12-3.25,3.5-4.62l15.68-15.29
	c1.62-1.63,3.53-2.94,5.63-3.87c6.78-3,14.7-1.57,20,3.62c5.45,5.29,15.43,15,33.41,32.52"/>
<path style="fill:none;stroke:#E67E22;stroke-width:32;stroke-linecap:round;stroke-linejoin:round;" d="M317.07,291.3
	c40.95,38.1,90.62,83.27,110,99.41c5.74,4.73,6.55,13.21,1.82,18.95c-0.28,0.34-0.57,0.66-0.88,0.97L394.63,444
	c-5.53,5.4-14.39,5.3-19.8-0.23c-0.17-0.17-0.33-0.35-0.49-0.53c-16.53-19.18-61.09-67.11-99.27-107"/>
<path style="fill:none;stroke:#E67E22;stroke-width:32;stroke-linecap:round;stroke-linejoin:round;" d="M17.34,193.5l29.41-28.74
	c0.91-0.89,2.14-1.38,3.41-1.35c1.27-0.01,2.49,0.47,3.41,1.35l0,0c2.16,2.13,5.18,3.16,8.19,2.77c3.83-0.42,7.92-1.6,10.57-4.12
	c6-5.8-0.94-17.23,4.34-24.54c6.04-8,12.65-15.56,19.78-22.6c6-5.88,29.84-28.32,69.9-44.45c12.81-5.18,26.5-7.83,40.32-7.82
	c22.59,0,40,10,46.26,15.67c3.76,3.57,7.2,7.47,10.28,11.64c-3.01-1.11-6.09-2.03-9.21-2.77c-6.57-1.39-13.31-1.82-20-1.26
	c-13.33,1.09-29.41,7.26-38,14c-13.9,11-19.87,25.72-20.81,44.71c-0.68,14.12,2.72,22.1,36.1,55.49c2.37,2.65,2.22,6.7-0.34,9.16
	l-18.22,18c-2.64,2.59-6.85,2.63-9.54,0.09c-21.94-21.94-36.65-33.09-45-38.16s-15.07-6.5-18.3-6.85
	c-6.34-0.63-12.73,0.72-18.27,3.87c-0.97,0.53-1.86,1.21-2.64,2c-5.43,5.61-5.28,14.56,0.33,19.99c0.03,0.03,0.06,0.06,0.09,0.09
	l1.71,1.6c1.83,1.78,1.88,4.71,0.09,6.55c-0.03,0.03-0.06,0.06-0.09,0.09L71.73,246.6c-0.9,0.91-2.13,1.42-3.41,1.4
	c-1.27,0.01-2.49-0.47-3.41-1.35l-47.57-46.43C15.55,198.34,15.55,195.38,17.34,193.5z"/>
</svg>
