<?xml version="1.0" encoding="utf-8"?>
<!-- Generator: Adobe Illustrator 25.4.2, SVG Export Plug-In . SVG Version: 6.00 Build 0)  -->
<svg version="1.1" id="Layer_1" xmlns="http://www.w3.org/2000/svg" xmlns:xlink="http://www.w3.org/1999/xlink" x="0px" y="0px"
	 viewBox="0 0 288 288" style="enable-background:new 0 0 288 288;" xml:space="preserve">
<path style="fill-rule:evenodd;clip-rule:evenodd;fill:#F1F0F0;" d="M144.02,28.47C78.63,28.47,25.6,81.49,25.6,146.9
	c0,52.31,33.93,96.7,80.99,112.36c5.92,1.09,8.08-2.57,8.08-5.71c0-2.81-0.1-10.26-0.16-20.14c-32.94,7.16-39.89-15.87-39.89-15.87
	c-5.38-13.68-13.15-17.32-13.15-17.32c-10.75-7.35,0.81-7.2,0.81-7.2c11.88,0.84,18.14,12.2,18.14,12.2
	c10.56,18.1,27.72,12.87,34.46,9.84c1.08-7.65,4.13-12.87,7.52-15.83c-26.3-2.99-53.94-13.15-53.94-58.53
	c0-12.93,4.61-23.5,12.19-31.78c-1.22-3-5.28-15.04,1.16-31.34c0,0,9.94-3.18,32.56,12.14c9.45-2.63,19.58-3.94,29.65-3.99
	c10.06,0.05,20.19,1.36,29.65,3.99c22.61-15.32,32.53-12.14,32.53-12.14c6.46,16.3,2.4,28.34,1.18,31.34
	c7.59,8.28,12.17,18.85,12.17,31.78c0,45.49-27.69,55.5-54.07,58.43c4.25,3.66,8.04,10.88,8.04,21.93c0,15.83-0.15,28.6-0.15,32.49
	c0,3.17,2.13,6.85,8.14,5.69c47.02-15.69,80.91-60.05,80.91-112.35C262.44,81.49,209.42,28.47,144.02,28.47z"/>
</svg>
