<?xml version="1.0" encoding="utf-8"?>
<!-- Generator: Adobe Illustrator 25.4.2, SVG Export Plug-In . SVG Version: 6.00 Build 0)  -->
<svg version="1.1" id="Layer_1" xmlns="http://www.w3.org/2000/svg" xmlns:xlink="http://www.w3.org/1999/xlink" x="0px" y="0px"
	 viewBox="0 0 256 223" style="enable-background:new 0 0 256 223;" xml:space="preserve">
<g>
	<path style="fill:#F0F0F0;" d="M255.88,51.66c-1.14,24.97-18.54,59.16-52.21,102.55c-34.81,45.33-64.25,67.99-88.34,67.99
		c-14.92,0-27.55-13.8-37.86-41.41c-6.89-25.31-13.78-50.61-20.66-75.91c-7.66-27.59-15.88-41.41-24.66-41.41
		c-1.91,0-8.62,4.04-20.09,12.08L0,60.01c12.63-11.12,25.1-22.24,37.36-33.38C54.21,12.04,66.86,4.37,75.29,3.59
		c19.92-1.92,32.19,11.73,36.79,40.94c4.97,31.51,8.41,51.12,10.35,58.79c5.74,26.15,12.06,39.2,18.96,39.2
		c5.36,0,13.41-8.48,24.14-25.44c10.72-16.96,16.46-29.87,17.24-38.73c1.53-14.64-4.22-21.98-17.24-21.98
		c-6.13,0-12.45,1.41-18.95,4.21c12.58-41.29,36.62-61.34,72.1-60.2C244.99,1.15,257.39,18.25,255.88,51.66"/>
</g>
</svg>
